<svg width="646" height="370" viewBox="0 0 646 370" fill="none" xmlns="http://www.w3.org/2000/svg">
<g filter="url(#filter0_d_757_682)">
<path d="M84 17.0253C84 7.62247 91.6225 0 101.025 0H545.475C554.877 0 562.5 7.62248 562.5 17.0253V344.09C562.5 353.493 554.877 361.115 545.475 361.115H101.025C91.6225 361.115 84 353.493 84 344.09V17.0253Z" fill="url(#paint0_linear_757_682)"/>
<path fill-rule="evenodd" clip-rule="evenodd" d="M545.225 1.79213H100.775C92.3622 1.79213 85.5421 8.61224 85.5421 17.0253V344.09C85.5421 352.503 92.3622 359.323 100.775 359.323H545.225C553.638 359.323 560.458 352.503 560.458 344.09V17.0253C560.458 8.61225 553.638 1.79213 545.225 1.79213ZM100.775 0C91.3725 0 83.75 7.62247 83.75 17.0253V344.09C83.75 353.493 91.3725 361.115 100.775 361.115H545.225C554.627 361.115 562.25 353.493 562.25 344.09V17.0253C562.25 7.62248 554.627 0 545.225 0H100.775Z" fill="url(#paint1_linear_757_682)"/>
<path d="M368.699 281.816C368.699 278.103 371.71 275.093 375.425 275.093H394.761C398.475 275.093 401.486 278.103 401.486 281.816V301.147C401.486 304.861 398.475 307.871 394.761 307.871H375.425C371.71 307.871 368.699 304.861 368.699 301.147V281.816Z" fill="#51CB9C"/>
<path d="M380.263 297.786L374.583 291.468L380.263 285.179H382.974L377.27 291.468L382.974 297.786H380.263Z" fill="white"/>
<path d="M387.186 285.179H389.896L395.6 291.468L389.896 297.786H387.186L392.89 291.468L387.186 285.179Z" fill="white"/>
<path d="M262.066 103.499C262.066 99.7857 265.078 96.7754 268.792 96.7754H288.128C291.842 96.7754 294.853 99.7857 294.853 103.499V122.83C294.853 126.543 291.842 129.553 288.128 129.553H268.792C265.078 129.553 262.066 126.543 262.066 122.83V103.499Z" fill="#1ABCFE"/>
<path fill-rule="evenodd" clip-rule="evenodd" d="M281.349 109.139L278.687 105.066H270.7V122.716H286.673V109.139H281.349ZM284.572 111.241H280.212L277.549 107.168H272.802V120.615H284.572V111.241Z" fill="white"/>
<path d="M429.631 140.237C429.631 136.524 432.642 133.514 436.356 133.514H455.692C459.407 133.514 462.418 136.524 462.418 140.237V159.568C462.418 163.281 459.407 166.292 455.692 166.292H436.356C432.642 166.292 429.631 163.281 429.631 159.568V140.237Z" fill="#FFC04A"/>
<path d="M438.039 149.055C439.399 148.801 440.079 148.102 440.079 146.955C440.079 146.448 440.013 145.582 439.879 144.356C439.746 143.049 439.679 142.103 439.679 141.516C439.679 140.556 439.946 139.823 440.479 139.316C441.026 138.81 441.753 138.557 442.659 138.557H443.82V140.136H442.999C442.479 140.136 442.093 140.256 441.839 140.496C441.586 140.723 441.459 141.103 441.459 141.636C441.459 142.023 441.486 142.503 441.539 143.076C441.593 143.636 441.626 144.016 441.639 144.216C441.773 145.495 441.839 146.428 441.839 147.015C441.839 147.722 441.659 148.315 441.299 148.795C440.953 149.261 440.413 149.575 439.679 149.735V149.775C440.413 149.935 440.953 150.254 441.299 150.734C441.659 151.214 441.839 151.807 441.839 152.514C441.839 153.101 441.773 154.034 441.639 155.314C441.626 155.513 441.593 155.9 441.539 156.473C441.486 157.033 441.459 157.506 441.459 157.893C441.459 158.426 441.586 158.806 441.839 159.033C442.093 159.273 442.479 159.393 442.999 159.393H443.82V160.972H442.659C441.753 160.972 441.026 160.719 440.479 160.213C439.946 159.706 439.679 158.973 439.679 158.013C439.679 157.426 439.746 156.48 439.879 155.174C440.013 153.947 440.079 153.081 440.079 152.574C440.079 151.428 439.399 150.728 438.039 150.474V149.055Z" fill="#1C1E53"/>
<path d="M454.255 150.474C452.895 150.728 452.215 151.428 452.215 152.574C452.215 153.081 452.282 153.947 452.415 155.174C452.548 156.48 452.615 157.426 452.615 158.013C452.615 158.973 452.342 159.706 451.795 160.213C451.262 160.719 450.541 160.972 449.635 160.972H448.475V159.393H449.295C449.815 159.393 450.201 159.273 450.455 159.033C450.708 158.806 450.835 158.426 450.835 157.893C450.835 157.506 450.808 157.033 450.755 156.473C450.701 155.9 450.668 155.513 450.655 155.314C450.521 154.034 450.455 153.101 450.455 152.514C450.455 151.807 450.628 151.214 450.975 150.734C451.335 150.254 451.882 149.935 452.615 149.775V149.735C451.882 149.575 451.335 149.261 450.975 148.795C450.628 148.315 450.455 147.722 450.455 147.015C450.455 146.429 450.521 145.495 450.655 144.216C450.668 144.016 450.701 143.636 450.755 143.076C450.808 142.503 450.835 142.023 450.835 141.636C450.835 141.103 450.708 140.723 450.455 140.496C450.201 140.256 449.815 140.136 449.295 140.136H448.475V138.557H449.635C450.541 138.557 451.262 138.81 451.795 139.316C452.342 139.823 452.615 140.556 452.615 141.516C452.615 142.103 452.548 143.049 452.415 144.356C452.282 145.582 452.215 146.448 452.215 146.955C452.215 148.102 452.895 148.801 454.255 149.055V150.474Z" fill="#1C1E53"/>
<path d="M4 101.256C4 95.3171 8.8142 90.5029 14.7528 90.5029H186.798C192.736 90.5029 197.551 95.3171 197.551 101.256V212.368C197.551 218.307 192.736 223.121 186.798 223.121H14.7528C8.8142 223.121 4 218.307 4 212.368V101.256Z" fill="url(#paint2_linear_757_682)"/>
<path fill-rule="evenodd" clip-rule="evenodd" d="M186.798 92.2951H14.7528C9.80397 92.2951 5.79213 96.3069 5.79213 101.256V212.368C5.79213 217.317 9.80397 221.329 14.7528 221.329H186.798C191.747 221.329 195.758 217.317 195.758 212.368V101.256C195.758 96.3069 191.747 92.2951 186.798 92.2951ZM14.7528 90.5029C8.8142 90.5029 4 95.3171 4 101.256V212.368C4 218.307 8.8142 223.121 14.7528 223.121H186.798C192.736 223.121 197.551 218.307 197.551 212.368V101.256C197.551 95.3171 192.736 90.5029 186.798 90.5029H14.7528Z" fill="url(#paint3_linear_757_682)"/>
<path d="M25.5059 125.45C25.5059 122.48 27.913 120.073 30.8823 120.073H81.062C84.0313 120.073 86.4384 122.48 86.4384 125.45V182.798C86.4384 185.767 84.0313 188.174 81.062 188.174H30.8823C27.913 188.174 25.5059 185.767 25.5059 182.798V125.45Z" fill="white" fill-opacity="0.17"/>
<path d="M98.0859 125.002C98.0859 122.28 100.292 120.073 103.014 120.073H166.635C169.357 120.073 171.563 122.28 171.563 125.002C171.563 127.723 169.357 129.93 166.635 129.93H103.014C100.292 129.93 98.0859 127.723 98.0859 125.002Z" fill="white" fill-opacity="0.6"/>
<path d="M98.0859 143.819C98.0859 141.097 100.292 138.891 103.014 138.891H166.635C169.357 138.891 171.563 141.097 171.563 143.819C171.563 146.541 169.357 148.747 166.635 148.747H103.014C100.292 148.747 98.0859 146.541 98.0859 143.819Z" fill="white" fill-opacity="0.26"/>
<path d="M98.0859 175.181C98.0859 166.025 105.508 158.604 114.663 158.604H115.559C124.715 158.604 132.136 166.025 132.136 175.181C132.136 184.336 124.715 191.758 115.559 191.758H114.663C105.508 191.758 98.0859 184.336 98.0859 175.181Z" fill="#767799"/>
<path d="M94.5039 33.6028C94.5039 23.4576 102.728 15.2334 112.873 15.2334H525.96C536.105 15.2334 544.33 23.4576 544.33 33.6028C544.33 43.7479 536.105 51.9722 525.96 51.9722H112.873C102.728 51.9722 94.5039 43.7479 94.5039 33.6028Z" fill="url(#paint4_linear_757_682)"/>
<path d="M469.955 199.823C469.955 193.885 474.769 189.07 480.708 189.07H631.247C637.186 189.07 642 193.885 642 199.823V310.935C642 316.874 637.186 321.688 631.247 321.688H480.708C474.769 321.688 469.955 316.874 469.955 310.935V199.823Z" fill="url(#paint5_linear_757_682)"/>
<path fill-rule="evenodd" clip-rule="evenodd" d="M631.247 190.862H480.708C475.759 190.862 471.747 194.874 471.747 199.823V310.935C471.747 315.884 475.759 319.896 480.708 319.896H631.247C636.196 319.896 640.208 315.884 640.208 310.935V199.823C640.208 194.874 636.196 190.862 631.247 190.862ZM480.708 189.07C474.769 189.07 469.955 193.885 469.955 199.823V310.935C469.955 316.874 474.769 321.688 480.708 321.688H631.247C637.186 321.688 642 316.874 642 310.935V199.823C642 193.885 637.186 189.07 631.247 189.07H480.708Z" fill="url(#paint6_linear_757_682)"/>
<path d="M485.885 210.575C485.885 208.596 487.489 206.991 489.469 206.991H622.485C624.465 206.991 626.07 208.596 626.07 210.575C626.07 212.555 624.465 214.16 622.485 214.16H489.469C487.489 214.16 485.885 212.555 485.885 210.575Z" fill="url(#paint7_linear_757_682)"/>
<path d="M485.885 228.497C485.885 226.518 487.489 224.913 489.469 224.913H532.48C534.46 224.913 536.065 226.518 536.065 228.497C536.065 230.477 534.46 232.082 532.48 232.082H489.469C487.489 232.082 485.885 230.477 485.885 228.497Z" fill="url(#paint8_linear_757_682)"/>
<path d="M542.437 228.497C542.437 226.518 544.041 224.913 546.021 224.913H562.747C564.727 224.913 566.332 226.518 566.332 228.497C566.332 230.477 564.727 232.082 562.747 232.082H546.021C544.041 232.082 542.437 230.477 542.437 228.497Z" fill="url(#paint9_linear_757_682)"/>
<path d="M485.885 300.183C485.885 298.203 487.489 296.599 489.469 296.599H532.48C534.46 296.599 536.065 298.203 536.065 300.183C536.065 302.162 534.46 303.767 532.48 303.767H489.469C487.489 303.767 485.885 302.162 485.885 300.183Z" fill="url(#paint10_linear_757_682)"/>
<path d="M542.437 300.183C542.437 298.203 544.041 296.599 546.021 296.599H562.747C564.727 296.599 566.332 298.203 566.332 300.183C566.332 302.162 564.727 303.767 562.747 303.767H546.021C544.041 303.767 542.437 302.162 542.437 300.183Z" fill="url(#paint11_linear_757_682)"/>
<path d="M514.56 264.34C514.56 262.361 516.164 260.756 518.144 260.756H530.091C532.071 260.756 533.676 262.361 533.676 264.34C533.676 266.32 532.071 267.924 530.091 267.924H518.144C516.164 267.924 514.56 266.32 514.56 264.34Z" fill="url(#paint12_linear_757_682)"/>
<path d="M540.845 264.34C540.845 262.361 542.449 260.756 544.429 260.756H595.405C597.385 260.756 598.99 262.361 598.99 264.34C598.99 266.32 597.385 267.924 595.405 267.924H544.429C542.449 267.924 540.845 266.32 540.845 264.34Z" fill="url(#paint13_linear_757_682)"/>
<path d="M485.885 264.34C485.885 262.361 487.489 260.756 489.469 260.756H506.196C508.175 260.756 509.78 262.361 509.78 264.34C509.78 266.32 508.175 267.924 506.196 267.924H489.469C487.489 267.924 485.885 266.32 485.885 264.34Z" fill="url(#paint14_linear_757_682)"/>
<path d="M485.885 246.418C485.885 244.439 487.489 242.834 489.469 242.834H547.614C549.593 242.834 551.198 244.439 551.198 246.418C551.198 248.398 549.593 250.003 547.614 250.003H489.469C487.489 250.003 485.885 248.398 485.885 246.418Z" fill="url(#paint15_linear_757_682)"/>
<path d="M556.774 246.418C556.774 244.439 558.379 242.834 560.359 242.834H587.44C589.419 242.834 591.024 244.439 591.024 246.418C591.024 248.398 589.419 250.003 587.44 250.003H560.359C558.379 250.003 556.774 248.398 556.774 246.418Z" fill="url(#paint16_linear_757_682)"/>
<path d="M485.885 282.261C485.885 280.281 487.489 278.677 489.469 278.677H547.614C549.593 278.677 551.198 280.281 551.198 282.261C551.198 284.241 549.593 285.845 547.614 285.845H489.469C487.489 285.845 485.885 284.241 485.885 282.261Z" fill="url(#paint17_linear_757_682)"/>
<path d="M127.343 33.8045C127.343 37.1979 124.591 39.9488 121.197 39.9488C117.802 39.9488 115.051 37.1979 115.051 33.8045C115.051 30.4111 117.802 27.6602 121.197 27.6602C124.591 27.6602 127.343 30.4111 127.343 33.8045Z" fill="#FED280"/>
<path d="M148.855 33.8045C148.855 37.1979 146.103 39.9488 142.709 39.9488C139.314 39.9488 136.562 37.1979 136.562 33.8045C136.562 30.4111 139.314 27.6602 142.709 27.6602C146.103 27.6602 148.855 30.4111 148.855 33.8045Z" fill="#8CFEE3" fill-opacity="0.9"/>
<path d="M170.368 33.8045C170.368 37.1979 167.617 39.9488 164.222 39.9488C160.828 39.9488 158.076 37.1979 158.076 33.8045C158.076 30.4111 160.828 27.6602 164.222 27.6602C167.617 27.6602 170.368 30.4111 170.368 33.8045Z" fill="#FF8DA9" fill-opacity="0.9"/>
<path d="M52.195 152.971C50.5054 150.767 47.139 150.914 45.6469 153.256L33.7979 171.857C32.1017 174.52 34.0144 178.006 37.1716 178.006H74.9104C78.1764 178.006 80.0658 174.303 78.1494 171.659L71.458 162.425C69.977 160.381 66.9963 160.203 65.2825 162.056L65.1577 162.191C63.4737 164.012 60.5556 163.877 59.0466 161.909L52.195 152.971Z" fill="white"/>
<path d="M75.479 140.027C75.479 143.243 72.8713 145.851 69.6545 145.851C66.4378 145.851 63.8301 143.243 63.8301 140.027C63.8301 136.81 66.4378 134.202 69.6545 134.202C72.8713 134.202 75.479 136.81 75.479 140.027Z" fill="#C4C5DC"/>
<path fill-rule="evenodd" clip-rule="evenodd" d="M196.43 153.228C196.43 152.609 196.931 152.107 197.55 152.107H331.08V178.486C331.08 179.105 330.578 179.606 329.96 179.606C329.341 179.606 328.84 179.105 328.84 178.486V154.348H197.55C196.931 154.348 196.43 153.846 196.43 153.228Z" fill="url(#paint18_linear_757_682)"/>
<path fill-rule="evenodd" clip-rule="evenodd" d="M471.075 255.379C471.075 255.998 470.574 256.499 469.955 256.499L329.256 256.499L329.256 231.121C329.256 230.502 329.758 230 330.376 230C330.995 230 331.497 230.502 331.497 231.121L331.497 254.259L469.955 254.259C470.574 254.259 471.075 254.76 471.075 255.379Z" fill="url(#paint19_linear_757_682)"/>
<g filter="url(#filter1_d_757_682)">
<path fill-rule="evenodd" clip-rule="evenodd" d="M328.056 199.554C328.05 199.771 328.089 199.875 328.287 199.875H333.06C333.924 199.939 334.697 200.155 335.351 200.575C335.805 200.866 336.137 201.213 336.387 201.597C336.83 202.278 337.081 203.261 337.217 204.055C337.275 204.398 337.302 204.719 337.24 204.867C337.21 204.938 337.166 204.985 337.107 205.007C336.779 205.132 336.432 204.704 336.247 204.499C335.367 203.524 334.088 203.121 332.579 203.045H328.216C328.06 203.071 328.004 203.18 328.02 203.349V204.512C328.011 204.899 327.805 205.031 327.397 204.9L323.64 202.108L323.27 201.834L323.176 201.764C322.874 201.506 322.998 201.272 323.269 201.07L323.556 200.856L327.156 198.173C327.595 197.845 328.056 197.758 328.056 198.464V199.554ZM332.236 211.427C332.242 211.211 332.203 211.107 332.005 211.107H327.232C326.368 211.043 325.595 210.827 324.941 210.407C324.484 210.113 324.151 209.765 323.901 209.378C323.448 208.678 323.153 207.539 323.044 206.721C323.01 206.46 323.002 206.233 323.052 206.114C323.082 206.044 323.126 205.997 323.185 205.974C323.513 205.85 323.86 206.278 324.045 206.482C324.925 207.457 326.205 207.861 327.713 207.936H332.076C332.232 207.911 332.288 207.801 332.272 207.633V206.469C332.281 206.082 332.487 205.951 332.895 206.081L336.652 208.873L337.022 209.148L337.116 209.218C337.418 209.475 337.294 209.709 337.023 209.912L336.736 210.125L333.137 212.809C332.697 213.136 332.237 213.224 332.237 212.518L332.236 211.427Z" fill="#88F1DB"/>
</g>
<path d="M252.211 153.227C252.211 158.176 248.2 162.188 243.251 162.188C238.302 162.188 234.29 158.176 234.29 153.227C234.29 148.278 238.302 144.267 243.251 144.267C248.2 144.267 252.211 148.278 252.211 153.227Z" fill="#383A68"/>
<path fill-rule="evenodd" clip-rule="evenodd" d="M243.251 160.396C247.21 160.396 250.419 157.186 250.419 153.227C250.419 149.268 247.21 146.059 243.251 146.059C239.292 146.059 236.082 149.268 236.082 153.227C236.082 157.186 239.292 160.396 243.251 160.396ZM243.251 162.188C248.2 162.188 252.211 158.176 252.211 153.227C252.211 148.278 248.2 144.267 243.251 144.267C238.302 144.267 234.29 148.278 234.29 153.227C234.29 158.176 238.302 162.188 243.251 162.188Z" fill="#63648A"/>
<path d="M447.552 255.38C447.552 260.328 443.54 264.34 438.592 264.34C433.643 264.34 429.631 260.328 429.631 255.38C429.631 250.431 433.643 246.419 438.592 246.419C443.54 246.419 447.552 250.431 447.552 255.38Z" fill="#383A68"/>
<path fill-rule="evenodd" clip-rule="evenodd" d="M438.592 262.548C442.551 262.548 445.76 259.339 445.76 255.38C445.76 251.421 442.551 248.211 438.592 248.211C434.632 248.211 431.423 251.421 431.423 255.38C431.423 259.339 434.632 262.548 438.592 262.548ZM438.592 264.34C443.54 264.34 447.552 260.328 447.552 255.38C447.552 250.431 443.54 246.419 438.592 246.419C433.643 246.419 429.631 250.431 429.631 255.38C429.631 260.328 433.643 264.34 438.592 264.34Z" fill="#63648A"/>
<path d="M138.41 165.327C138.41 161.614 141.421 158.604 145.136 158.604H164.472C168.186 158.604 171.197 161.614 171.197 165.327V184.658C171.197 188.371 168.186 191.382 164.472 191.382H145.136C141.421 191.382 138.41 188.371 138.41 184.658V165.327Z" fill="#767799"/>
<path fill-rule="evenodd" clip-rule="evenodd" d="M158.065 184.393H152.007V181.872H158.065V184.393Z" fill="white"/>
<path fill-rule="evenodd" clip-rule="evenodd" d="M146.396 167.429H163.21V171.485H160.688V169.95H148.919V171.485H146.396V167.429Z" fill="white"/>
<path fill-rule="evenodd" clip-rule="evenodd" d="M153.699 183.274L153.854 168.831L156.376 168.858L156.22 183.301L153.699 183.274Z" fill="white"/>
</g>
<defs>
<filter id="filter0_d_757_682" x="0" y="0" width="646" height="369.115" filterUnits="userSpaceOnUse" color-interpolation-filters="sRGB">
<feFlood flood-opacity="0" result="BackgroundImageFix"/>
<feColorMatrix in="SourceAlpha" type="matrix" values="0 0 0 0 0 0 0 0 0 0 0 0 0 0 0 0 0 0 127 0" result="hardAlpha"/>
<feOffset dy="4"/>
<feGaussianBlur stdDeviation="2"/>
<feComposite in2="hardAlpha" operator="out"/>
<feColorMatrix type="matrix" values="0 0 0 0 0 0 0 0 0 0 0 0 0 0 0 0 0 0 0.25 0"/>
<feBlend mode="normal" in2="BackgroundImageFix" result="effect1_dropShadow_757_682"/>
<feBlend mode="normal" in="SourceGraphic" in2="effect1_dropShadow_757_682" result="shape"/>
</filter>
<filter id="filter1_d_757_682" x="309" y="187.927" width="42.292" height="43.1279" filterUnits="userSpaceOnUse" color-interpolation-filters="sRGB">
<feFlood flood-opacity="0" result="BackgroundImageFix"/>
<feColorMatrix in="SourceAlpha" type="matrix" values="0 0 0 0 0 0 0 0 0 0 0 0 0 0 0 0 0 0 127 0" result="hardAlpha"/>
<feOffset dy="4"/>
<feGaussianBlur stdDeviation="7"/>
<feComposite in2="hardAlpha" operator="out"/>
<feColorMatrix type="matrix" values="0 0 0 0 0.533333 0 0 0 0 0.945098 0 0 0 0 0.858824 0 0 0 1 0"/>
<feBlend mode="normal" in2="BackgroundImageFix" result="effect1_dropShadow_757_682"/>
<feBlend mode="normal" in="SourceGraphic" in2="effect1_dropShadow_757_682" result="shape"/>
</filter>
<linearGradient id="paint0_linear_757_682" x1="323.25" y1="0" x2="446.61" y2="524.825" gradientUnits="userSpaceOnUse">
<stop stop-color="white" stop-opacity="0.16"/>
<stop offset="1" stop-color="#C4C4C4" stop-opacity="0"/>
</linearGradient>
<linearGradient id="paint1_linear_757_682" x1="323" y1="1.34022e-05" x2="661.888" y2="244.481" gradientUnits="userSpaceOnUse">
<stop stop-color="white" stop-opacity="0.17"/>
<stop offset="1" stop-opacity="0"/>
</linearGradient>
<linearGradient id="paint2_linear_757_682" x1="45.8266" y1="126.113" x2="282.936" y2="434.827" gradientUnits="userSpaceOnUse">
<stop stop-color="#40416E"/>
<stop offset="1" stop-color="#5A5B8B"/>
</linearGradient>
<linearGradient id="paint3_linear_757_682" x1="100.775" y1="90.5029" x2="183.171" y2="427.829" gradientUnits="userSpaceOnUse">
<stop stop-color="white" stop-opacity="0.17"/>
<stop offset="1" stop-opacity="0"/>
</linearGradient>
<linearGradient id="paint4_linear_757_682" x1="319.417" y1="15.2334" x2="387.39" y2="224.788" gradientUnits="userSpaceOnUse">
<stop stop-color="white" stop-opacity="0.15"/>
<stop offset="1" stop-color="#C4C4C4" stop-opacity="0"/>
</linearGradient>
<linearGradient id="paint5_linear_757_682" x1="801.652" y1="535.76" x2="330.286" y2="107.827" gradientUnits="userSpaceOnUse">
<stop stop-color="#40416E"/>
<stop offset="1" stop-color="#5A5B8B"/>
</linearGradient>
<linearGradient id="paint6_linear_757_682" x1="555.978" y1="189.07" x2="647.306" y2="521.426" gradientUnits="userSpaceOnUse">
<stop stop-color="white" stop-opacity="0.17"/>
<stop offset="1" stop-opacity="0"/>
</linearGradient>
<linearGradient id="paint7_linear_757_682" x1="555.977" y1="206.991" x2="564.791" y2="250.392" gradientUnits="userSpaceOnUse">
<stop stop-color="white" stop-opacity="0.56"/>
<stop offset="1" stop-color="#C4C4C4" stop-opacity="0"/>
</linearGradient>
<linearGradient id="paint8_linear_757_682" x1="510.975" y1="224.913" x2="530.371" y2="259.099" gradientUnits="userSpaceOnUse">
<stop stop-color="#F9C746" stop-opacity="0.52"/>
<stop offset="1" stop-color="#C4C4C4" stop-opacity="0"/>
</linearGradient>
<linearGradient id="paint9_linear_757_682" x1="554.384" y1="224.913" x2="576.637" y2="243.59" gradientUnits="userSpaceOnUse">
<stop stop-color="#84EBE5" stop-opacity="0.62"/>
<stop offset="1" stop-color="#C4C4C4" stop-opacity="0"/>
</linearGradient>
<linearGradient id="paint10_linear_757_682" x1="510.975" y1="296.599" x2="530.371" y2="330.785" gradientUnits="userSpaceOnUse">
<stop stop-color="white" stop-opacity="0.56"/>
<stop offset="1" stop-color="#C4C4C4" stop-opacity="0"/>
</linearGradient>
<linearGradient id="paint11_linear_757_682" x1="554.384" y1="296.599" x2="576.637" y2="315.276" gradientUnits="userSpaceOnUse">
<stop stop-color="#F47D9E"/>
<stop offset="1" stop-color="#C4C4C4" stop-opacity="0"/>
</linearGradient>
<linearGradient id="paint12_linear_757_682" x1="524.118" y1="260.756" x2="545.032" y2="274.799" gradientUnits="userSpaceOnUse">
<stop stop-color="#F2C87D"/>
<stop offset="1" stop-color="#C4C4C4" stop-opacity="0"/>
</linearGradient>
<linearGradient id="paint13_linear_757_682" x1="569.917" y1="260.756" x2="587.765" y2="297.207" gradientUnits="userSpaceOnUse">
<stop stop-color="white" stop-opacity="0.62"/>
<stop offset="1" stop-color="#C4C4C4" stop-opacity="0"/>
</linearGradient>
<linearGradient id="paint14_linear_757_682" x1="492.257" y1="258.964" x2="528.934" y2="264.143" gradientUnits="userSpaceOnUse">
<stop stop-color="#F37D9D"/>
<stop offset="1" stop-color="#C4C4C4" stop-opacity="0"/>
</linearGradient>
<linearGradient id="paint15_linear_757_682" x1="518.541" y1="242.834" x2="535.095" y2="280.809" gradientUnits="userSpaceOnUse">
<stop stop-color="white" stop-opacity="0.58"/>
<stop offset="1" stop-color="#C4C4C4" stop-opacity="0"/>
</linearGradient>
<linearGradient id="paint16_linear_757_682" x1="573.899" y1="242.834" x2="596.114" y2="269.559" gradientUnits="userSpaceOnUse">
<stop stop-color="white" stop-opacity="0.45"/>
<stop offset="1" stop-color="#C4C4C4" stop-opacity="0"/>
</linearGradient>
<linearGradient id="paint17_linear_757_682" x1="518.541" y1="278.677" x2="535.095" y2="316.652" gradientUnits="userSpaceOnUse">
<stop stop-color="#70D1E7"/>
<stop offset="1" stop-color="#C4C4C4" stop-opacity="0"/>
</linearGradient>
<linearGradient id="paint18_linear_757_682" x1="318.831" y1="147.041" x2="139.117" y2="201.28" gradientUnits="userSpaceOnUse">
<stop stop-color="#767799"/>
<stop offset="1" stop-color="#767799" stop-opacity="0"/>
</linearGradient>
<linearGradient id="paint19_linear_757_682" x1="342.205" y1="261.565" x2="529.789" y2="201.931" gradientUnits="userSpaceOnUse">
<stop stop-color="#767799"/>
<stop offset="1" stop-color="#767799" stop-opacity="0"/>
</linearGradient>
</defs>
</svg>
