<?xml version="1.0" standalone="no"?>
<!DOCTYPE svg PUBLIC "-//W3C//DTD SVG 20010904//EN"
 "http://www.w3.org/TR/2001/REC-SVG-20010904/DTD/svg10.dtd">
<svg version="1.0" xmlns="http://www.w3.org/2000/svg"
 width="512.000000pt" height="512.000000pt" viewBox="0 0 512.000000 512.000000"
 preserveAspectRatio="xMidYMid meet">

<g transform="translate(0.000000,512.000000) scale(0.100000,-0.100000)"
fill="#000000" stroke="none">
<path d="M2400 4970 c-310 -27 -620 -106 -818 -210 -120 -62 -147 -88 -160
-157 -19 -94 -32 -314 -32 -520 l0 -193 705 0 705 0 0 -58 0 -59 -1053 -6
c-702 -4 -1072 -10 -1108 -18 -291 -59 -500 -291 -593 -658 -87 -345 -42 -760
117 -1076 108 -215 300 -409 500 -504 123 -58 300 -101 419 -101 55 0 50 -10
68 140 28 229 79 494 121 620 48 147 148 279 264 349 192 116 403 138 1070
111 360 -15 543 0 714 56 131 44 181 91 257 243 114 229 172 596 161 1019 -10
382 -68 619 -183 751 -105 120 -320 212 -599 256 -124 19 -414 27 -555 15z
m-355 -335 c102 -50 159 -143 159 -260 0 -158 -112 -278 -271 -292 -111 -10
-230 59 -283 164 -35 67 -35 187 -1 253 78 151 246 209 396 135z"/>
<path d="M3936 3668 c-3 -24 -13 -106 -22 -183 -21 -188 -57 -390 -89 -500
-85 -292 -264 -438 -600 -491 -98 -15 -151 -16 -485 -8 -615 15 -738 10 -910
-33 -185 -46 -272 -128 -354 -335 -155 -392 -178 -1131 -47 -1511 49 -142 137
-242 277 -314 206 -106 424 -148 764 -147 350 1 644 52 914 158 98 39 243 123
261 151 7 11 18 50 24 88 15 90 31 486 24 598 l-6 89 -703 0 -704 0 0 58 0 59
1093 6 c1062 7 1094 8 1167 28 269 74 465 329 548 713 22 106 26 145 26 311 0
158 -3 209 -22 302 -83 413 -299 725 -610 882 -134 67 -349 121 -486 121 l-55
0 -5 -42z m-680 -2613 c270 -138 168 -550 -136 -549 -173 1 -300 139 -288 313
15 212 233 333 424 236z"/>
</g>
</svg>
